<?xml version="1.0" encoding="UTF-8"?>
<svg id="Layer_1" data-name="Layer 1" xmlns="http://www.w3.org/2000/svg" xmlns:xlink="http://www.w3.org/1999/xlink" viewBox="0 0 2048 2048">
  <defs>
    <style>
      .cls-1 {
        fill: url(#linear-gradient);
      }

      .cls-2 {
        fill: #92278f;
      }
    </style>
    <linearGradient id="linear-gradient" x1="920.48" y1="1035.08" x2="1182.05" y2="1918.9" gradientUnits="userSpaceOnUse">
      <stop offset="0" stop-color="#92278f" stop-opacity=".6"/>
      <stop offset="1" stop-color="#92278f"/>
    </linearGradient>
  </defs>
  <g>
    <path class="cls-2" d="M1172.74,706.21h-297.44l21.81,146.08h253.82l21.81-146.08Z"/>
    <path class="cls-2" d="M825.48,904.74h397.05v93.64h-397.05v-93.64Z"/>
    <path class="cls-1" d="M935.48,1477.13c45.98,0,67.88-14.43,93.24-31.14,28.32-18.65,60.37-39.78,122.08-39.78s93.72,21.14,122.04,39.78c14.41,9.48,27.56,18.23,44.77,24.03l-111.46-204.01h0c-13.62-24.63-20.86-52.28-21.08-80.42v-134.77h-322.13v134.77c-.23,28.15-7.46,55.8-21.08,80.44l-78.82,144.09c35.52,6.96,58.25,22.1,79.18,35.88,25.38,16.71,47.28,31.14,93.25,31.14h0Z"/>
    <path class="cls-2" d="M1485.99,1778.56l-135.97-249.57c-51.29-3.34-80.2-22.27-105.91-39.21-25.38-16.71-47.29-31.14-93.27-31.14s-67.9,14.43-93.27,31.14c-28.32,18.65-60.41,39.8-122.11,39.8s-93.79-21.12-122.11-39.78c-22.26-14.66-41.87-27.54-77.43-30.49l-173.96,319.25h.01c-19.5,35.87-18.7,79.36,2.13,114.47,20.83,35.12,58.61,56.68,99.43,56.75h720.92c40.83-.08,78.59-21.64,99.42-56.76,20.83-35.12,21.63-78.59,2.11-114.46h-.01Z"/>
  </g>
  <path class="cls-2" d="M1279.44,383.92c-15.8,14.77-36.19,23.68-57.77,25.24-21.57,1.56-43.04-4.31-60.81-16.65-5.81-4.01-13.71-3-18.32,2.33-4.62,5.34-4.48,13.31,.32,18.48,14.77,15.8,23.68,36.2,25.24,57.77,1.57,21.58-4.31,43.04-16.65,60.81-4.01,5.81-3,13.71,2.33,18.32,5.34,4.62,13.31,4.48,18.48-.32,15.8-14.77,36.19-23.68,57.77-25.24,21.57-1.56,43.04,4.31,60.81,16.65,5.81,4.01,13.71,3,18.33-2.34,4.62-5.33,4.48-13.29-.33-18.47-14.78-15.8-23.69-36.19-25.25-57.77-1.56-21.58,4.32-43.04,16.66-60.81,4.01-5.81,3-13.71-2.34-18.33-5.33-4.62-13.29-4.48-18.47,.33h0Z"/>
  <path class="cls-2" d="M857.11,112.57c.64,15.41-4.02,30.59-13.21,42.98-9.19,12.4-22.34,21.27-37.28,25.14-6.82,1.81-11.2,8.45-10.15,15.43,1.03,6.97,7.16,12.06,14.2,11.8,15.41-.64,30.58,4.02,42.98,13.21,12.4,9.19,21.27,22.34,25.15,37.27,1.81,6.82,8.44,11.19,15.42,10.15,6.97-1.03,12.06-7.15,11.8-14.2-.64-15.42,4.03-30.58,13.22-42.98,9.18-12.39,22.34-21.27,37.27-25.15,6.82-1.8,11.19-8.44,10.15-15.42-1.03-6.97-7.16-12.06-14.2-11.8-15.41,.64-30.58-4.02-42.98-13.21-12.4-9.19-21.27-22.34-25.15-37.27-1.81-6.82-8.44-11.19-15.41-10.16-6.98,1.04-12.06,7.15-11.8,14.2h0Z"/>
  <path class="cls-2" d="M572.48,592.82c31.51-16.96,67.88-22.6,103.06-15.99,35.17,6.61,67.01,25.07,90.23,52.29,5.56,6.47,15.08,7.72,22.11,2.91,7.04-4.81,9.33-14.14,5.32-21.66-16.95-31.51-22.6-67.88-15.98-103.06,6.6-35.17,25.06-67.01,52.29-90.23,6.47-5.56,7.71-15.08,2.9-22.11-4.81-7.04-14.13-9.32-21.65-5.32-31.52,16.94-67.89,22.59-103.06,15.98-35.18-6.61-67.02-25.06-90.23-52.3-5.55-6.45-15.08-7.71-22.11-2.9-7.04,4.81-9.33,14.14-5.32,21.66,16.96,31.51,22.6,67.88,15.99,103.05-6.61,35.18-25.06,67.02-52.3,90.23-6.45,5.55-7.71,15.07-2.9,22.11,4.81,7.03,14.14,9.33,21.66,5.32h0Z"/>
</svg>